<svg width="228" height="33" viewBox="0 0 228 33" fill="none" xmlns="http://www.w3.org/2000/svg">
<path d="M0.945 12.365C0.945 10.8483 1.225 9.36667 1.785 7.92C2.345 6.45 3.16167 5.12 4.235 3.93C5.30833 2.74 6.615 1.795 8.155 1.095C9.695 0.371665 11.445 0.00999838 13.405 0.00999838C15.7383 0.00999838 17.7567 0.511666 19.46 1.515C21.1867 2.51833 22.47 3.825 23.31 5.435L18.9 8.515C18.5267 7.62833 18.025 6.94 17.395 6.45C16.7883 5.96 16.1117 5.62167 15.365 5.435C14.6417 5.225 13.9417 5.12 13.265 5.12C12.1683 5.12 11.2117 5.34167 10.395 5.785C9.57833 6.205 8.90167 6.77667 8.365 7.5C7.82833 8.22333 7.43167 9.02833 7.175 9.915C6.91833 10.8017 6.79 11.6883 6.79 12.575C6.79 13.555 6.94167 14.5 7.245 15.41C7.54833 16.32 7.98 17.125 8.54 17.825C9.12333 18.525 9.82333 19.085 10.64 19.505C11.4567 19.9017 12.355 20.1 13.335 20.1C14.035 20.1 14.7467 19.9833 15.47 19.75C16.1933 19.5167 16.8583 19.155 17.465 18.665C18.095 18.1517 18.5733 17.4867 18.9 16.67L23.59 19.435C23.1 20.6483 22.295 21.6867 21.175 22.55C20.055 23.4133 18.7833 24.0783 17.36 24.545C15.96 24.9883 14.5717 25.21 13.195 25.21C11.3983 25.21 9.74167 24.8483 8.225 24.125C6.73167 23.3783 5.43667 22.3983 4.34 21.185C3.26667 19.9483 2.42667 18.5717 1.82 17.055C1.23667 15.515 0.945 13.9517 0.945 12.365ZM34.67 25.35C33.1066 25.35 31.7183 25.105 30.505 24.615C29.2916 24.1017 28.2533 23.4133 27.39 22.55C26.55 21.6867 25.9083 20.695 25.465 19.575C25.0216 18.4317 24.8 17.2417 24.8 16.005C24.8 14.2317 25.185 12.6217 25.955 11.175C26.7483 9.705 27.88 8.52667 29.35 7.64C30.82 6.73 32.5933 6.275 34.67 6.275C36.7466 6.275 38.5083 6.71833 39.955 7.605C41.425 8.49167 42.545 9.65833 43.315 11.105C44.085 12.5283 44.47 14.08 44.47 15.76C44.47 16.0867 44.4466 16.4133 44.4 16.74C44.3766 17.0433 44.3533 17.3117 44.33 17.545H30.75C30.82 18.3617 31.0416 19.05 31.415 19.61C31.8116 20.17 32.3133 20.6017 32.92 20.905C33.5266 21.185 34.1683 21.325 34.845 21.325C35.685 21.325 36.4666 21.1267 37.19 20.73C37.9366 20.3333 38.45 19.7967 38.73 19.12L43.49 20.45C43.0233 21.4067 42.3583 22.2583 41.495 23.005C40.655 23.7283 39.6516 24.3 38.485 24.72C37.3416 25.14 36.07 25.35 34.67 25.35ZM30.61 14.115H38.59C38.4966 13.345 38.275 12.68 37.925 12.12C37.575 11.5367 37.1083 11.0933 36.525 10.79C35.9416 10.4633 35.3 10.3 34.6 10.3C33.8766 10.3 33.2233 10.4633 32.64 10.79C32.08 11.0933 31.625 11.5367 31.275 12.12C30.925 12.68 30.7033 13.345 30.61 14.115ZM58.628 25.35C57.2513 25.35 56.0497 25.0583 55.023 24.475C53.9963 23.8683 53.1913 23.0517 52.608 22.025V32.455H47.008V6.625H51.873V9.6C52.5497 8.55 53.4013 7.73333 54.428 7.15C55.4547 6.56667 56.6563 6.275 58.033 6.275C59.2697 6.275 60.4013 6.52 61.428 7.01C62.478 7.5 63.388 8.17667 64.158 9.04C64.928 9.90333 65.523 10.9067 65.943 12.05C66.363 13.1933 66.573 14.43 66.573 15.76C66.573 17.58 66.2347 19.2133 65.558 20.66C64.8813 22.1067 63.9363 23.25 62.723 24.09C61.533 24.93 60.168 25.35 58.628 25.35ZM56.738 20.625C57.3447 20.625 57.893 20.4967 58.383 20.24C58.8963 19.96 59.3397 19.5983 59.713 19.155C60.0863 18.7117 60.3663 18.1983 60.553 17.615C60.763 17.0083 60.868 16.3783 60.868 15.725C60.868 15.0483 60.7513 14.43 60.518 13.87C60.308 13.31 60.0047 12.82 59.608 12.4C59.2113 11.9567 58.7447 11.6183 58.208 11.385C57.6713 11.1517 57.088 11.035 56.458 11.035C56.0847 11.035 55.6997 11.0933 55.303 11.21C54.9297 11.3267 54.568 11.5017 54.218 11.735C53.8913 11.945 53.588 12.2017 53.308 12.505C53.028 12.8083 52.7947 13.1583 52.608 13.555V17.335C52.8647 17.965 53.203 18.525 53.623 19.015C54.043 19.505 54.5213 19.9017 55.058 20.205C55.5947 20.485 56.1547 20.625 56.738 20.625ZM69.4307 25V6.625H80.0707C81.424 6.625 82.509 6.835 83.3257 7.255C84.1657 7.675 84.7724 8.22333 85.1457 8.9C85.519 9.55333 85.7057 10.2767 85.7057 11.07C85.7057 12.12 85.4724 13.0183 85.0057 13.765C84.5624 14.5117 83.8507 15.1067 82.8707 15.55C83.944 15.8533 84.819 16.3667 85.4957 17.09C86.1957 17.79 86.5457 18.7583 86.5457 19.995C86.5457 21.2083 86.254 22.1883 85.6707 22.935C85.1107 23.6583 84.294 24.1833 83.2207 24.51C82.1707 24.8367 80.899 25 79.4057 25H69.4307ZM74.7507 21.255H79.2307C79.5807 21.255 79.8957 21.1733 80.1757 21.01C80.479 20.8467 80.7124 20.625 80.8757 20.345C81.039 20.0417 81.1207 19.715 81.1207 19.365C81.1207 18.9683 81.039 18.63 80.8757 18.35C80.7357 18.07 80.514 17.8483 80.2107 17.685C79.9307 17.5217 79.6157 17.44 79.2657 17.44H74.7507V21.255ZM74.7507 14.01H78.6707C79.0207 14.01 79.3357 13.9283 79.6157 13.765C79.8957 13.6017 80.1057 13.38 80.2457 13.1C80.3857 12.7967 80.4557 12.47 80.4557 12.12C80.4557 11.63 80.2924 11.2217 79.9657 10.895C79.639 10.545 79.219 10.37 78.7057 10.37H74.7507V14.01ZM89.6993 25V6.625H95.2993V17.545L102.404 6.625H107.514V25H101.914V14.395L94.8443 25H89.6993ZM120.153 25.35C118.59 25.35 117.202 25.0933 115.988 24.58C114.775 24.0667 113.737 23.3667 112.873 22.48C112.033 21.5933 111.392 20.5783 110.948 19.435C110.505 18.2917 110.283 17.0783 110.283 15.795C110.283 14.115 110.668 12.5517 111.438 11.105C112.232 9.65833 113.363 8.49167 114.833 7.605C116.303 6.71833 118.077 6.275 120.153 6.275C122.253 6.275 124.027 6.73 125.473 7.64C126.943 8.52667 128.04 9.69333 128.763 11.14L123.303 12.785C122.953 12.225 122.498 11.7933 121.938 11.49C121.402 11.1867 120.795 11.035 120.118 11.035C119.348 11.035 118.648 11.2333 118.018 11.63C117.412 12.0267 116.922 12.575 116.548 13.275C116.198 13.975 116.023 14.815 116.023 15.795C116.023 16.7517 116.21 17.5917 116.583 18.315C116.957 19.0383 117.447 19.61 118.053 20.03C118.66 20.4267 119.348 20.625 120.118 20.625C120.585 20.625 121.017 20.555 121.413 20.415C121.833 20.2517 122.207 20.03 122.533 19.75C122.883 19.47 123.152 19.155 123.338 18.805L128.798 20.485C128.355 21.4183 127.713 22.2583 126.873 23.005C126.057 23.7283 125.088 24.3 123.968 24.72C122.848 25.14 121.577 25.35 120.153 25.35ZM131.294 25V19.295H135.879V25H131.294ZM138.758 29.76V19.96H140.158C140.765 19.96 141.29 19.7267 141.733 19.26C142.2 18.77 142.597 18.0233 142.923 17.02C143.25 15.9933 143.507 14.6867 143.693 13.1C143.88 11.49 144.008 9.565 144.078 7.325L144.288 0.149999H161.508V19.96H164.903V29.76H159.863V25H143.763V29.76H138.758ZM146.878 19.96H155.768V5.19H149.503L149.433 8.13C149.387 10.2533 149.27 12.0967 149.083 13.66C148.92 15.2 148.663 16.495 148.313 17.545C147.963 18.5717 147.485 19.3767 146.878 19.96ZM176.687 25.35C175.123 25.35 173.735 25.105 172.522 24.615C171.308 24.1017 170.27 23.4133 169.407 22.55C168.567 21.6867 167.925 20.695 167.482 19.575C167.038 18.4317 166.817 17.2417 166.817 16.005C166.817 14.2317 167.202 12.6217 167.972 11.175C168.765 9.705 169.897 8.52667 171.367 7.64C172.837 6.73 174.61 6.275 176.687 6.275C178.763 6.275 180.525 6.71833 181.972 7.605C183.442 8.49167 184.562 9.65833 185.332 11.105C186.102 12.5283 186.487 14.08 186.487 15.76C186.487 16.0867 186.463 16.4133 186.417 16.74C186.393 17.0433 186.37 17.3117 186.347 17.545H172.767C172.837 18.3617 173.058 19.05 173.432 19.61C173.828 20.17 174.33 20.6017 174.937 20.905C175.543 21.185 176.185 21.325 176.862 21.325C177.702 21.325 178.483 21.1267 179.207 20.73C179.953 20.3333 180.467 19.7967 180.747 19.12L185.507 20.45C185.04 21.4067 184.375 22.2583 183.512 23.005C182.672 23.7283 181.668 24.3 180.502 24.72C179.358 25.14 178.087 25.35 176.687 25.35ZM172.627 14.115H180.607C180.513 13.345 180.292 12.68 179.942 12.12C179.592 11.5367 179.125 11.0933 178.542 10.79C177.958 10.4633 177.317 10.3 176.617 10.3C175.893 10.3 175.24 10.4633 174.657 10.79C174.097 11.0933 173.642 11.5367 173.292 12.12C172.942 12.68 172.72 13.345 172.627 14.115ZM197.81 25.35C196.246 25.35 194.858 25.0933 193.645 24.58C192.431 24.0667 191.393 23.3667 190.53 22.48C189.69 21.5933 189.048 20.5783 188.605 19.435C188.161 18.2917 187.94 17.0783 187.94 15.795C187.94 14.115 188.325 12.5517 189.095 11.105C189.888 9.65833 191.02 8.49167 192.49 7.605C193.96 6.71833 195.733 6.275 197.81 6.275C199.91 6.275 201.683 6.73 203.13 7.64C204.6 8.52667 205.696 9.69333 206.42 11.14L200.96 12.785C200.61 12.225 200.155 11.7933 199.595 11.49C199.058 11.1867 198.451 11.035 197.775 11.035C197.005 11.035 196.305 11.2333 195.675 11.63C195.068 12.0267 194.578 12.575 194.205 13.275C193.855 13.975 193.68 14.815 193.68 15.795C193.68 16.7517 193.866 17.5917 194.24 18.315C194.613 19.0383 195.103 19.61 195.71 20.03C196.316 20.4267 197.005 20.625 197.775 20.625C198.241 20.625 198.673 20.555 199.07 20.415C199.49 20.2517 199.863 20.03 200.19 19.75C200.54 19.47 200.808 19.155 200.995 18.805L206.455 20.485C206.011 21.4183 205.37 22.2583 204.53 23.005C203.713 23.7283 202.745 24.3 201.625 24.72C200.505 25.14 199.233 25.35 197.81 25.35ZM209.021 25V6.625H214.586V13.205H215.916L220.466 6.625H226.486L220.186 15.445L227.151 25H220.746L215.811 18.07H214.586V25H209.021Z" fill="url(#paint0_linear_1_4)"/>
<defs>
<linearGradient id="paint0_linear_1_4" x1="43" y1="-17.5" x2="240" y2="41.5" gradientUnits="userSpaceOnUse">
<stop stop-color="#FF4747"/>
<stop offset="1" stop-color="#FF7676"/>
</linearGradient>
</defs>
</svg>
